<svg id="visual" viewBox="0 0 1920 1080" width="1920" height="1080" xmlns="http://www.w3.org/2000/svg" xmlns:xlink="http://www.w3.org/1999/xlink" version="1.1"><rect x="0" y="0" width="1920" height="1080" fill="#001220"></rect><path d="M0 388L35.5 409.3C71 430.7 142 473.3 213.2 474.5C284.3 475.7 355.7 435.3 426.8 400.3C498 365.3 569 335.7 640 360.8C711 386 782 466 853.2 486C924.3 506 995.7 466 1066.8 443C1138 420 1209 414 1280 420.8C1351 427.7 1422 447.3 1493.2 432.5C1564.3 417.7 1635.7 368.3 1706.8 351.7C1778 335 1849 351 1884.5 359L1920 367L1920 1081L1884.5 1081C1849 1081 1778 1081 1706.8 1081C1635.7 1081 1564.3 1081 1493.2 1081C1422 1081 1351 1081 1280 1081C1209 1081 1138 1081 1066.8 1081C995.7 1081 924.3 1081 853.2 1081C782 1081 711 1081 640 1081C569 1081 498 1081 426.8 1081C355.7 1081 284.3 1081 213.2 1081C142 1081 71 1081 35.5 1081L0 1081Z" fill="#ea7317"></path><path d="M0 398L35.5 395.8C71 393.7 142 389.3 213.2 391.8C284.3 394.3 355.7 403.7 426.8 420.7C498 437.7 569 462.3 640 480C711 497.7 782 508.3 853.2 521C924.3 533.7 995.7 548.3 1066.8 558.5C1138 568.7 1209 574.3 1280 548.5C1351 522.7 1422 465.3 1493.2 459.5C1564.3 453.7 1635.7 499.3 1706.8 494.8C1778 490.3 1849 435.7 1884.5 408.3L1920 381L1920 1081L1884.5 1081C1849 1081 1778 1081 1706.8 1081C1635.7 1081 1564.3 1081 1493.2 1081C1422 1081 1351 1081 1280 1081C1209 1081 1138 1081 1066.8 1081C995.7 1081 924.3 1081 853.2 1081C782 1081 711 1081 640 1081C569 1081 498 1081 426.8 1081C355.7 1081 284.3 1081 213.2 1081C142 1081 71 1081 35.5 1081L0 1081Z" fill="#e36720"></path><path d="M0 418L35.5 416.5C71 415 142 412 213.2 433.2C284.3 454.3 355.7 499.7 426.8 509.3C498 519 569 493 640 505.8C711 518.7 782 570.3 853.2 598.7C924.3 627 995.7 632 1066.8 619.2C1138 606.3 1209 575.7 1280 577.3C1351 579 1422 613 1493.2 618C1564.3 623 1635.7 599 1706.8 591.2C1778 583.3 1849 591.7 1884.5 595.8L1920 600L1920 1081L1884.5 1081C1849 1081 1778 1081 1706.8 1081C1635.7 1081 1564.3 1081 1493.2 1081C1422 1081 1351 1081 1280 1081C1209 1081 1138 1081 1066.8 1081C995.7 1081 924.3 1081 853.2 1081C782 1081 711 1081 640 1081C569 1081 498 1081 426.8 1081C355.7 1081 284.3 1081 213.2 1081C142 1081 71 1081 35.5 1081L0 1081Z" fill="#db5b27"></path><path d="M0 514L35.5 545.2C71 576.3 142 638.7 213.2 668.2C284.3 697.7 355.7 694.3 426.8 677.8C498 661.3 569 631.7 640 617.5C711 603.3 782 604.7 853.2 606.7C924.3 608.7 995.7 611.3 1066.8 600.7C1138 590 1209 566 1280 561.5C1351 557 1422 572 1493.2 571.5C1564.3 571 1635.7 555 1706.8 536.7C1778 518.3 1849 497.7 1884.5 487.3L1920 477L1920 1081L1884.5 1081C1849 1081 1778 1081 1706.8 1081C1635.7 1081 1564.3 1081 1493.2 1081C1422 1081 1351 1081 1280 1081C1209 1081 1138 1081 1066.8 1081C995.7 1081 924.3 1081 853.2 1081C782 1081 711 1081 640 1081C569 1081 498 1081 426.8 1081C355.7 1081 284.3 1081 213.2 1081C142 1081 71 1081 35.5 1081L0 1081Z" fill="#d2502c"></path><path d="M0 570L35.5 582.5C71 595 142 620 213.2 622.7C284.3 625.3 355.7 605.7 426.8 620C498 634.3 569 682.7 640 685.3C711 688 782 645 853.2 614.2C924.3 583.3 995.7 564.7 1066.8 569.5C1138 574.3 1209 602.7 1280 610.3C1351 618 1422 605 1493.2 603.3C1564.3 601.7 1635.7 611.3 1706.8 620.8C1778 630.3 1849 639.7 1884.5 644.3L1920 649L1920 1081L1884.5 1081C1849 1081 1778 1081 1706.8 1081C1635.7 1081 1564.3 1081 1493.2 1081C1422 1081 1351 1081 1280 1081C1209 1081 1138 1081 1066.8 1081C995.7 1081 924.3 1081 853.2 1081C782 1081 711 1081 640 1081C569 1081 498 1081 426.8 1081C355.7 1081 284.3 1081 213.2 1081C142 1081 71 1081 35.5 1081L0 1081Z" fill="#c94530"></path><path d="M0 764L35.5 765.3C71 766.7 142 769.3 213.2 761.2C284.3 753 355.7 734 426.8 724.8C498 715.7 569 716.3 640 726.3C711 736.3 782 755.7 853.2 764C924.3 772.3 995.7 769.7 1066.8 748C1138 726.3 1209 685.7 1280 679.2C1351 672.7 1422 700.3 1493.2 723.3C1564.3 746.3 1635.7 764.7 1706.8 745.7C1778 726.7 1849 670.3 1884.5 642.2L1920 614L1920 1081L1884.5 1081C1849 1081 1778 1081 1706.8 1081C1635.7 1081 1564.3 1081 1493.2 1081C1422 1081 1351 1081 1280 1081C1209 1081 1138 1081 1066.8 1081C995.7 1081 924.3 1081 853.2 1081C782 1081 711 1081 640 1081C569 1081 498 1081 426.8 1081C355.7 1081 284.3 1081 213.2 1081C142 1081 71 1081 35.5 1081L0 1081Z" fill="#be3b34"></path><path d="M0 783L35.5 762.2C71 741.3 142 699.7 213.2 689.5C284.3 679.3 355.7 700.7 426.8 724.2C498 747.7 569 773.3 640 764.5C711 755.7 782 712.3 853.2 712C924.3 711.7 995.7 754.3 1066.8 780.8C1138 807.3 1209 817.7 1280 804C1351 790.3 1422 752.7 1493.2 747.8C1564.3 743 1635.7 771 1706.8 775.2C1778 779.3 1849 759.7 1884.5 749.8L1920 740L1920 1081L1884.5 1081C1849 1081 1778 1081 1706.8 1081C1635.7 1081 1564.3 1081 1493.2 1081C1422 1081 1351 1081 1280 1081C1209 1081 1138 1081 1066.8 1081C995.7 1081 924.3 1081 853.2 1081C782 1081 711 1081 640 1081C569 1081 498 1081 426.8 1081C355.7 1081 284.3 1081 213.2 1081C142 1081 71 1081 35.5 1081L0 1081Z" fill="#b33136"></path><path d="M0 829L35.5 815.8C71 802.7 142 776.3 213.2 768.3C284.3 760.3 355.7 770.7 426.8 769.2C498 767.7 569 754.3 640 762.2C711 770 782 799 853.2 820.5C924.3 842 995.7 856 1066.8 861.5C1138 867 1209 864 1280 845.3C1351 826.7 1422 792.3 1493.2 769.2C1564.3 746 1635.7 734 1706.8 741C1778 748 1849 774 1884.5 787L1920 800L1920 1081L1884.5 1081C1849 1081 1778 1081 1706.8 1081C1635.7 1081 1564.3 1081 1493.2 1081C1422 1081 1351 1081 1280 1081C1209 1081 1138 1081 1066.8 1081C995.7 1081 924.3 1081 853.2 1081C782 1081 711 1081 640 1081C569 1081 498 1081 426.8 1081C355.7 1081 284.3 1081 213.2 1081C142 1081 71 1081 35.5 1081L0 1081Z" fill="#a82938"></path><path d="M0 862L35.5 869.8C71 877.7 142 893.3 213.2 882.7C284.3 872 355.7 835 426.8 815.7C498 796.3 569 794.7 640 812.5C711 830.3 782 867.7 853.2 875.8C924.3 884 995.7 863 1066.8 848.5C1138 834 1209 826 1280 839.5C1351 853 1422 888 1493.2 899.5C1564.3 911 1635.7 899 1706.8 886.2C1778 873.3 1849 859.7 1884.5 852.8L1920 846L1920 1081L1884.5 1081C1849 1081 1778 1081 1706.8 1081C1635.7 1081 1564.3 1081 1493.2 1081C1422 1081 1351 1081 1280 1081C1209 1081 1138 1081 1066.8 1081C995.7 1081 924.3 1081 853.2 1081C782 1081 711 1081 640 1081C569 1081 498 1081 426.8 1081C355.7 1081 284.3 1081 213.2 1081C142 1081 71 1081 35.5 1081L0 1081Z" fill="#9c2139"></path><path d="M0 929L35.5 929.7C71 930.3 142 931.7 213.2 929.7C284.3 927.7 355.7 922.3 426.8 919C498 915.7 569 914.3 640 907.8C711 901.3 782 889.7 853.2 891.2C924.3 892.7 995.7 907.3 1066.8 916.2C1138 925 1209 928 1280 930.5C1351 933 1422 935 1493.2 920.5C1564.3 906 1635.7 875 1706.8 874C1778 873 1849 902 1884.5 916.5L1920 931L1920 1081L1884.5 1081C1849 1081 1778 1081 1706.8 1081C1635.7 1081 1564.3 1081 1493.2 1081C1422 1081 1351 1081 1280 1081C1209 1081 1138 1081 1066.8 1081C995.7 1081 924.3 1081 853.2 1081C782 1081 711 1081 640 1081C569 1081 498 1081 426.8 1081C355.7 1081 284.3 1081 213.2 1081C142 1081 71 1081 35.5 1081L0 1081Z" fill="#8f1939"></path><path d="M0 931L35.5 943.3C71 955.7 142 980.3 213.2 990.2C284.3 1000 355.7 995 426.8 983.7C498 972.3 569 954.7 640 947.8C711 941 782 945 853.2 953C924.3 961 995.7 973 1066.8 967.3C1138 961.7 1209 938.3 1280 937.5C1351 936.7 1422 958.3 1493.2 962.5C1564.3 966.7 1635.7 953.3 1706.8 943.8C1778 934.3 1849 928.7 1884.5 925.8L1920 923L1920 1081L1884.5 1081C1849 1081 1778 1081 1706.8 1081C1635.7 1081 1564.3 1081 1493.2 1081C1422 1081 1351 1081 1280 1081C1209 1081 1138 1081 1066.8 1081C995.7 1081 924.3 1081 853.2 1081C782 1081 711 1081 640 1081C569 1081 498 1081 426.8 1081C355.7 1081 284.3 1081 213.2 1081C142 1081 71 1081 35.5 1081L0 1081Z" fill="#821338"></path><path d="M0 1002L35.5 1000C71 998 142 994 213.2 990C284.3 986 355.7 982 426.8 992.8C498 1003.7 569 1029.3 640 1028C711 1026.7 782 998.3 853.2 989.2C924.3 980 995.7 990 1066.8 996.3C1138 1002.7 1209 1005.3 1280 1007.2C1351 1009 1422 1010 1493.2 1016.7C1564.3 1023.3 1635.7 1035.7 1706.8 1038.5C1778 1041.3 1849 1034.7 1884.5 1031.3L1920 1028L1920 1081L1884.5 1081C1849 1081 1778 1081 1706.8 1081C1635.7 1081 1564.3 1081 1493.2 1081C1422 1081 1351 1081 1280 1081C1209 1081 1138 1081 1066.8 1081C995.7 1081 924.3 1081 853.2 1081C782 1081 711 1081 640 1081C569 1081 498 1081 426.8 1081C355.7 1081 284.3 1081 213.2 1081C142 1081 71 1081 35.5 1081L0 1081Z" fill="#750d37"></path></svg>